<svg width="60" height="58" viewBox="0 0 60 58" fill="none" xmlns="http://www.w3.org/2000/svg">
<path d="M6.40584 12.753C5.6884 13.7312 5.89984 15.1059 6.8781 15.8233L8.1828 16.7802C9.16106 17.4976 10.5357 17.2862 11.2531 16.3079C11.9706 15.3296 11.7591 13.955 10.7809 13.2375L9.47619 12.2807C8.49793 11.5633 7.12328 11.7747 6.40584 12.753ZM25.5581 1.20952C24.3392 1.39701 23.503 2.53716 23.6905 3.7561L24.077 6.26893C24.2645 7.48787 25.4047 8.32403 26.6236 8.13654C27.8426 7.94905 28.6787 6.80891 28.4912 5.58996L28.1047 3.07713C27.9172 1.85819 26.7771 1.02203 25.5581 1.20952ZM6.21098 35.9701C7.42993 35.7826 8.26609 34.6425 8.0786 33.4235C7.89111 32.2046 6.75097 31.3684 5.53202 31.5559L2.89356 31.9617C1.67461 32.1492 0.838455 33.2894 1.02595 34.5083C1.21344 35.7273 2.35358 36.5634 3.57252 36.3759L6.21098 35.9701ZM40.001 44.4643C39.8109 43.228 40.3109 42.0296 41.1592 41.1862C42.6908 39.6632 43.8792 37.8764 44.7248 35.821C45.7812 33.2536 46.0925 30.5528 45.6549 27.7081C44.9923 23.3999 42.9103 19.9689 39.393 17.3894C35.8757 14.8099 31.9776 13.8552 27.6694 14.5178C23.3613 15.1805 19.9303 17.2625 17.3508 20.7798C14.7713 24.2971 13.8165 28.1952 14.4792 32.5033C14.9172 35.3509 16.0065 37.8382 17.7456 39.9763C19.1349 41.6844 20.8103 43.0295 22.7753 44.0145C23.8601 44.5582 24.7188 45.5602 24.9118 46.8149L25.8764 53.0862C26.2542 55.5426 28.5518 57.2276 31.0082 56.8497L37.2065 55.8964C39.6629 55.5185 41.3479 53.2209 40.9701 50.7645L40.001 44.4643ZM51.9106 26.6815C52.0981 27.9005 53.2382 28.7367 54.4572 28.5492L57.0956 28.1433C58.3146 27.9558 59.1507 26.8157 58.9632 25.5968C58.7757 24.3778 57.6356 23.5416 56.4167 23.7291L53.7782 24.135C52.5593 24.3225 51.7231 25.4626 51.9106 26.6815ZM43.2774 8.22655C42.5606 9.20393 42.784 10.5791 43.7734 11.2792C44.7305 11.9564 46.0524 11.7504 46.758 10.8141L47.7317 9.52201C48.4626 8.55203 48.2594 7.17169 47.28 6.45343C46.3096 5.74171 44.9459 5.95146 44.2342 6.92192L43.2774 8.22655Z" fill="#9DA2C8" stroke="#6668AA"/>
</svg>
