<svg width="80" height="18" viewBox="0 0 80 18" fill="none" xmlns="http://www.w3.org/2000/svg">
<path d="M12.6105 12.2716C12.6105 13.0901 12.419 13.7955 12.0358 14.3876C11.6701 14.9623 11.0605 15.4935 10.2072 15.9812C9.63243 16.3295 8.96191 16.5907 8.19561 16.7649C7.42931 16.939 6.6543 17.0261 5.87058 17.0261C5.06945 17.0261 4.07674 16.7649 2.89246 16.2424C2.03908 15.8244 1.35986 15.3281 0.854797 14.7533C0.36715 14.1786 0.123327 13.5516 0.123327 12.8724C0.123327 12.4022 0.227823 12.0626 0.436814 11.8536C0.645805 11.6272 0.985416 11.514 1.45565 11.514C1.69947 11.514 1.952 11.6185 2.21324 11.8275C2.47448 12.019 2.63122 12.2106 2.68347 12.4022C2.92729 13.1162 3.35398 13.6648 3.96354 14.048C4.5731 14.4137 5.33069 14.5966 6.23632 14.5966C7.28127 14.5966 8.15207 14.405 8.84871 14.0219C9.56276 13.6387 9.91979 13.125 9.91979 12.4806C9.91979 11.8536 9.53664 11.2963 8.77034 10.8086C8.00404 10.321 7.22032 9.98138 6.41919 9.7898C5.26973 9.47632 4.2509 9.10188 3.36269 8.66648C2.43965 8.21366 1.75172 7.65635 1.2989 6.99455C0.846089 6.33274 0.619681 5.63611 0.619681 4.90464C0.619681 4.22542 0.854797 3.53749 1.32503 2.84085C1.79526 2.1268 2.35257 1.61303 2.99696 1.29954C3.34527 1.12538 3.93742 0.942513 4.77338 0.750937C5.62676 0.541947 6.24503 0.437451 6.62818 0.437451C7.13324 0.437451 7.69055 0.498407 8.30011 0.620318C8.90966 0.74223 9.40602 0.916389 9.78917 1.1428C10.5555 1.57819 11.1215 1.97005 11.4872 2.31837C11.853 2.66669 12.0358 3.10209 12.0358 3.62457C12.0358 3.93805 11.9139 4.21671 11.6701 4.46053C11.4437 4.70435 11.0431 4.82626 10.4684 4.82626C10.3291 4.82626 10.1897 4.76531 10.0504 4.6434C9.91108 4.52149 9.73692 4.33862 9.52793 4.0948C9.24927 3.72906 8.97933 3.48524 8.71809 3.36333C8.45685 3.27625 8.0737 3.18046 7.56864 3.07596C7.08099 2.97147 6.64559 2.91922 6.26244 2.91922C5.84446 2.91922 5.40906 3.0063 4.95625 3.18046C4.50343 3.35462 4.12028 3.60715 3.8068 3.93805C3.51073 4.25154 3.36269 4.61727 3.36269 5.03526C3.36269 5.38357 3.51943 5.68835 3.83292 5.94959C4.16382 6.19342 4.55568 6.3937 5.0085 6.55044C5.53097 6.75943 6.09699 6.9423 6.70655 7.09904C7.50768 7.34287 8.16078 7.56927 8.66584 7.77827C9.18832 7.96984 9.69338 8.21366 10.181 8.50973C11.0344 9.0148 11.6527 9.53727 12.0358 10.0772C12.419 10.5996 12.6105 11.3311 12.6105 12.2716ZM16.3861 0.22846C16.9956 0.280707 17.5268 0.446158 17.9796 0.724814C18.4324 0.986052 18.6588 1.38662 18.6588 1.92651C18.6588 2.32708 18.4673 2.64927 18.0841 2.8931C17.7184 3.1195 17.2743 3.23271 16.7518 3.23271C16.2467 3.23271 15.8984 3.10209 15.7068 2.84085C15.5153 2.57961 15.4195 2.30966 15.4195 2.03101C15.4195 1.50853 15.4717 1.07313 15.5762 0.724814C15.6981 0.376495 15.9681 0.211044 16.3861 0.22846ZM18.476 11.8013V12.5589C18.476 13.2382 18.4934 13.8825 18.5282 14.4921C18.5805 15.0842 18.6414 15.6851 18.7111 16.2947C18.6937 16.4688 18.5631 16.6517 18.3192 16.8433C18.0754 17.0174 17.8577 17.1045 17.6661 17.1045C17.3352 17.1045 16.9956 17.0435 16.6473 16.9216C16.3164 16.7823 16.1161 16.6168 16.0465 16.4253C15.942 15.868 15.8897 15.3716 15.8897 14.9362C15.8897 13.5081 15.8462 11.9058 15.7591 10.1294C15.6894 8.56198 15.6546 7.46478 15.6546 6.8378C15.6546 6.52432 15.8113 6.25437 16.1248 6.02796C16.4383 5.80156 16.7692 5.68835 17.1175 5.68835C17.6226 5.68835 17.9709 5.80156 18.1625 6.02796C18.3715 6.25437 18.476 6.6114 18.476 7.09904V11.8013ZM33.6503 14.9885C33.7374 15.0233 33.8767 15.0668 34.0683 15.1191C34.2598 15.1713 34.3992 15.2236 34.4862 15.2758C34.5733 15.3281 34.6169 15.4064 34.6169 15.5109C34.6343 15.9289 34.4775 16.2772 34.1466 16.5559C33.8332 16.8171 33.4587 16.9478 33.0233 16.9478C32.3441 16.9478 31.8129 16.7649 31.4298 16.3992C31.0466 16.0334 30.7679 15.4761 30.5938 14.7272C30.5241 14.4312 30.4893 14.0219 30.4893 13.4994C30.4893 13.2033 30.5067 12.7244 30.5415 12.0626C30.5764 11.3659 30.5938 10.8086 30.5938 10.3907C30.5938 9.7811 30.4196 9.24991 30.0713 8.7971C29.7404 8.32687 29.2702 8.09175 28.6606 8.09175C28.2949 8.09175 27.9117 8.20496 27.5112 8.43136C27.1106 8.64035 26.8319 8.90159 26.6752 9.21508C26.414 9.72014 26.2311 10.2687 26.1266 10.8609C25.935 11.9058 25.8392 12.9943 25.8392 14.1264C25.8392 14.6663 25.8479 15.0842 25.8654 15.3803C25.8654 15.45 25.8654 15.5893 25.8654 15.7983C25.8828 15.9899 25.8654 16.1727 25.8131 16.3469C25.7783 16.5036 25.7086 16.6517 25.6041 16.791C25.517 16.8781 25.3777 16.9478 25.1861 17C25.012 17.0697 24.8465 17.1045 24.6898 17.1045C24.446 17.1045 24.1412 17 23.7755 16.791C23.4097 16.582 23.2007 16.3469 23.1485 16.0857L23.1224 15.6416C23.1224 15.4848 23.1398 15.3019 23.1746 15.093C23.3836 13.8738 23.4881 12.8115 23.4881 11.9058C23.4881 11.5053 23.4794 11.1918 23.462 10.9654L23.4358 9.73756C23.4358 9.31957 23.3313 8.91901 23.1224 8.53586C22.9134 8.13529 22.6695 7.93501 22.3909 7.93501C22.3038 7.93501 22.1819 7.96984 22.0252 8.0395C21.8684 8.09175 21.7378 8.11788 21.6333 8.11788C21.4591 8.11788 21.2676 8.0308 21.0586 7.85664C20.867 7.68248 20.7712 7.49961 20.7712 7.30803C20.7712 6.9423 20.8931 6.64623 21.1369 6.41982C21.3982 6.21083 21.6507 6.04538 21.8945 5.92347C22.1558 5.80156 22.4518 5.7406 22.7827 5.7406C23.0614 5.7406 23.2878 5.76672 23.462 5.81897C23.6361 5.87122 23.8712 5.98442 24.1673 6.15858C24.3241 6.24566 24.5069 6.43724 24.7159 6.73331C24.9249 7.02938 25.0991 7.44736 25.2384 7.98726C25.6912 7.15129 26.2485 6.56786 26.9103 6.23695C27.5895 5.88864 28.4516 5.71448 29.4966 5.71448C29.8972 5.71448 30.3238 5.8451 30.7767 6.10634C31.2469 6.36757 31.6475 6.67235 31.9784 7.02067C32.2918 7.40382 32.5531 7.88276 32.7621 8.45749C32.9711 9.0148 33.0756 9.51986 33.0756 9.97267C33.0756 10.2339 33.0581 10.6606 33.0233 11.2527C32.9711 11.723 32.9449 12.2193 32.9449 12.7418C32.9449 13.9609 33.1801 14.7098 33.6503 14.9885ZM46.4361 17.1045C45.844 17.1045 45.3911 17.0174 45.0777 16.8433C44.7642 16.6517 44.4246 16.3034 44.0588 15.7983C43.606 16.1989 42.9268 16.5211 42.0212 16.7649C41.1329 17.0087 40.3666 17.1306 39.7223 17.1306C38.6599 17.1306 37.7978 16.8433 37.136 16.2685C36.4916 15.6764 36.1694 14.8143 36.1694 13.6823C36.1694 13.1946 36.3 12.7505 36.5613 12.3499C36.8399 11.932 37.1969 11.5662 37.6323 11.2527C38.12 10.9218 38.6947 10.6606 39.3565 10.469C40.0357 10.2775 40.654 10.1817 41.2113 10.1817C42.1518 10.1817 42.9877 10.2687 43.7192 10.4429V10.4168C43.7192 9.47632 43.4841 8.83193 43.0139 8.48361C42.561 8.11788 41.8296 7.93501 40.8195 7.93501C40.1751 7.93501 39.6178 8.22237 39.1475 8.7971C38.9734 9.0235 38.6076 9.13671 38.0503 9.13671C37.7717 9.13671 37.5627 9.0235 37.4233 8.7971C37.3014 8.55327 37.2405 8.30945 37.2405 8.06563C37.2405 7.56057 37.4495 7.12517 37.8675 6.75943C38.3029 6.3937 38.8253 6.12375 39.4349 5.94959C40.0444 5.75802 40.6105 5.66223 41.1329 5.66223C41.638 5.66223 42.2389 5.76673 42.9355 5.97572C43.6321 6.18471 44.1981 6.46336 44.6335 6.81168C45.156 7.2645 45.5566 7.79568 45.8352 8.40524C46.1313 8.99738 46.2793 9.65048 46.2793 10.3645C46.2793 10.5909 46.2619 10.9305 46.2271 11.3834C46.1923 11.9058 46.1749 12.3325 46.1749 12.6634C46.1749 12.8202 46.1574 13.0205 46.1226 13.2643C46.0878 13.5778 46.0704 13.839 46.0704 14.048C46.0704 14.2744 46.14 14.4921 46.2793 14.7011C46.4187 14.9101 46.6103 15.0842 46.8541 15.2236C47.0805 15.3455 47.2285 15.4761 47.2982 15.6154C47.3678 15.7548 47.4027 15.9115 47.4027 16.0857C47.4027 16.2598 47.2895 16.4775 47.0631 16.7388C46.8541 16.9826 46.6451 17.1045 46.4361 17.1045ZM41.2113 12.1148C40.5321 12.1148 39.9312 12.2455 39.4088 12.5067C38.8863 12.7679 38.625 13.2295 38.625 13.8913C38.625 14.2222 38.7383 14.5008 38.9647 14.7272C39.2085 14.9536 39.4697 15.0668 39.7484 15.0668C40.4973 15.0668 41.1242 14.9885 41.6293 14.8317C42.1344 14.675 42.7439 14.3876 43.458 13.9696C43.545 13.691 43.5973 13.2991 43.6147 12.7941C43.6147 12.6025 43.6234 12.4544 43.6408 12.3499C42.7004 12.1932 41.8905 12.1148 41.2113 12.1148ZM49.0795 8.19625C48.9402 8.19625 48.8183 8.144 48.7138 8.0395C48.6093 7.91759 48.557 7.77826 48.557 7.62152C48.557 7.11646 48.7225 6.73331 49.0534 6.47207C49.3843 6.19342 49.7936 6.05409 50.2812 6.05409C50.9604 6.05409 51.5439 6.23695 52.0315 6.60269C52.5366 6.95101 52.7891 7.45607 52.7891 8.11788C52.7891 8.29204 52.7543 8.95384 52.6846 10.1033C52.6149 11.4269 52.5801 12.3064 52.5801 12.7418C52.5801 13.3514 52.6933 13.8477 52.9197 14.2309C53.1635 14.5966 53.538 14.7795 54.043 14.7795C55.0183 14.7795 55.7672 14.2396 56.2897 13.1598C56.8296 12.0626 57.1866 10.7216 57.3608 9.13671C57.4304 8.44007 57.5349 7.7086 57.6743 6.9423C57.7439 6.52432 57.8397 6.21954 57.9616 6.02796C58.0835 5.83639 58.3187 5.7406 58.667 5.7406C58.8934 5.7406 59.1546 5.79285 59.4507 5.89734C59.7642 6.00184 59.9645 6.14117 60.0515 6.31533C60.156 6.57657 60.2083 6.86393 60.2083 7.17742C60.2083 7.61281 60.1473 8.17883 60.0254 8.87547C59.8861 9.57211 59.7903 10.3297 59.7381 11.1482C59.7032 11.8797 59.8164 12.646 60.0777 13.4472C60.3389 14.2483 60.7133 14.7708 61.201 15.0146C61.7583 15.2932 62.037 15.5458 62.037 15.7722C62.037 16.1379 61.9063 16.4253 61.6451 16.6343C61.3839 16.8433 61.1313 16.9478 60.8875 16.9478C60.2431 16.9478 59.6597 16.7126 59.1372 16.2424C58.6321 15.7722 58.2664 15.1887 58.04 14.4921C57.6743 15.0494 57.3172 15.5109 56.9689 15.8767C56.638 16.225 56.2113 16.5211 55.6888 16.7649C55.1664 16.9913 54.522 17.1045 53.7557 17.1045C52.8501 17.1045 52.0228 16.7823 51.2739 16.1379C50.5424 15.4935 50.1767 14.3876 50.1767 12.8202C50.1767 12.3848 50.1854 11.9233 50.2028 11.4356C50.2377 10.948 50.2551 10.5996 50.2551 10.3907C50.3073 9.76368 50.3335 9.18896 50.3335 8.66648C50.3335 8.50973 50.2725 8.37911 50.1506 8.27462C50.0461 8.17012 49.9242 8.11788 49.7848 8.11788C49.6804 8.11788 49.5584 8.13529 49.4191 8.17012C49.2972 8.18754 49.184 8.19625 49.0795 8.19625ZM75.9522 10.7825C76.0567 10.3994 76.1699 9.87688 76.2918 9.21508C76.466 8.43136 76.6053 7.83922 76.7098 7.43865C76.8143 7.03809 76.9536 6.69848 77.1278 6.41982C77.3194 6.10634 77.4848 5.89734 77.6241 5.79285C77.7809 5.68835 77.9463 5.63611 78.1205 5.63611C79.0261 5.63611 79.4789 5.98442 79.4789 6.68106C79.4789 7.02938 79.3396 7.68248 79.061 8.64035C78.1379 11.4269 77.4761 13.5865 77.0755 15.1191C76.9014 15.7635 76.6401 16.2598 76.2918 16.6081C75.9435 16.939 75.4733 17.1045 74.8811 17.1045C74.5851 17.1045 74.2803 16.9652 73.9668 16.6865C73.6707 16.3904 73.4269 16.0334 73.2353 15.6154L72.948 14.9101C72.4603 13.6736 72.0946 12.7244 71.8508 12.0626C71.6244 11.3834 71.4763 10.7738 71.4067 10.2339L71.1715 11.0699C70.7536 12.5676 70.3182 13.9609 69.8653 15.2497C69.6389 15.9115 69.3603 16.3904 69.0294 16.6865C68.6985 16.9652 68.2718 17.1045 67.7493 17.1045C67.4358 17.1045 67.1572 17.0348 66.9133 16.8955C66.6869 16.7562 66.4692 16.5211 66.2603 16.1902C65.9816 15.7373 65.7116 15.1278 65.4504 14.3615C65.2066 13.5952 64.8496 12.4022 64.3793 10.7825C64.1529 10.0859 63.9439 9.35441 63.7524 8.58811C63.5608 7.80439 63.465 7.25579 63.465 6.9423C63.465 6.57657 63.5608 6.2892 63.7524 6.08021C63.9439 5.87122 64.2226 5.76673 64.5883 5.76673C65.0586 5.76673 65.3895 5.86251 65.581 6.05409C65.7726 6.22825 65.9468 6.49819 66.1035 6.86393C66.1906 7.4909 66.3822 8.37911 66.6782 9.52857L67.253 11.9842C67.2878 12.1758 67.3923 12.5764 67.5664 13.1859L67.7754 13.9435C68.1586 13.125 68.4808 12.3412 68.742 11.5924C69.0033 10.8435 69.2906 9.92042 69.6041 8.82322C69.6215 8.75356 69.7957 8.15271 70.1266 7.02067C70.353 6.65494 70.5533 6.38499 70.7274 6.21083C70.9016 6.01926 71.0758 5.92347 71.2499 5.92347C71.5982 5.92347 71.8943 6.03667 72.1381 6.26308C72.3994 6.47207 72.5909 6.73331 72.7129 7.0468C72.9218 7.72602 73.1047 8.34428 73.2615 8.90159C73.3311 9.128 73.4879 9.6766 73.7317 10.5474C73.9929 11.4008 74.228 12.1235 74.437 12.7157C74.646 13.3078 74.8202 13.7258 74.9595 13.9696L75.9522 10.7825Z" fill="url(#paint0_linear_101_352)"/>
<defs>
<linearGradient id="paint0_linear_101_352" x1="40" y1="-12" x2="40" y2="27.1858" gradientUnits="userSpaceOnUse">
<stop stop-color="#C7CAFE"/>
<stop offset="1" stop-color="#3D408F"/>
</linearGradient>
</defs>
</svg>
